<svg width="391" height="32" viewBox="0 0 391 32" fill="none" xmlns="http://www.w3.org/2000/svg">
<path d="M0 0.129825H23.1761V5.07744H0V0.129825ZM0 26.1701H23.1102V31.1177H0V26.1701ZM0 13.0199H20.897V17.9024H0V13.0199ZM46.4815 18.0329H58.0041V13.2154H46.4815V18.0329ZM58.0041 21.8085L53.1866 21.8086V26.2354H48.4343C46.7852 26.2354 45.3095 25.975 44.0075 25.4542C42.7055 24.9768 41.5554 24.2606 40.5572 23.3059C39.6458 22.3077 38.9298 21.1793 38.409 19.9207C37.8882 18.7055 37.6278 17.295 37.6278 15.6892C37.6278 14.1702 37.8882 12.7597 38.409 11.4577C38.9732 10.0689 39.6893 8.94051 40.5572 8.07257C41.5121 7.11771 42.6622 6.35825 44.0076 5.79396C45.3096 5.27315 46.7853 5.01275 48.4344 5.01275L57.9388 5.07785V0.130243L48.4344 0.0651429C46.0041 0.0651429 43.769 0.455744 41.7291 1.23699C39.7326 2.01819 37.9967 3.10321 36.521 4.49204C35.0887 5.88078 33.9387 7.53002 33.0707 9.43956C32.2895 11.3058 31.8989 13.3456 31.8989 15.559C31.8989 17.7725 32.2895 19.8339 33.0707 21.7436C33.9387 23.74 35.0888 25.3892 36.521 26.6912C37.823 27.9932 39.5591 29.0999 41.729 30.0113C43.8122 30.7925 46.0473 31.1831 48.4343 31.1831H58.0037L58.0041 21.8085ZM87.1689 31.1177H93.028L81.7004 0.0645793H75.7762L82.3513 18.6184L87.1689 31.1177ZM63.2122 31.1177H68.941L75.7114 14.582L72.9121 7.16056L63.2122 31.1177ZM122.258 21.7435C121.434 23.74 120.305 25.3891 118.873 26.6911C117.398 28.0799 115.662 29.165 113.665 29.9462C111.669 30.7274 109.434 31.118 106.96 31.118H99.7337V26.1704H106.895C108.544 26.1704 110.041 25.91 111.387 25.3892C112.689 24.8684 113.817 24.1306 114.772 23.1757C115.727 22.2209 116.464 21.0925 116.985 19.7905C117.506 18.4885 117.766 17.0563 117.766 15.4939C117.766 13.9749 117.506 12.5644 116.985 11.2624C116.464 9.91697 115.727 8.81029 114.772 7.94226C113.904 7.03082 112.775 6.29311 111.387 5.72881C109.998 5.20801 108.501 4.94761 106.895 4.94761H99.7337V0H106.96C109.26 0 111.473 0.412283 113.6 1.23692C115.597 1.9747 117.354 3.08139 118.873 4.55705C120.349 5.90247 121.477 7.5517 122.258 9.50466C123.083 11.5011 123.495 13.5409 123.495 15.6241C123.495 17.881 123.083 19.9207 122.258 21.7435ZM146.475 18.0329H157.998V13.2154H146.475V18.0329ZM157.998 21.8085L153.18 21.8086V26.2354H148.428C146.779 26.2354 145.303 25.975 144.001 25.4542C142.699 24.9768 141.549 24.2606 140.551 23.3059C139.64 22.3077 138.924 21.1793 138.403 19.9207C137.882 18.7055 137.622 17.295 137.622 15.6892C137.622 14.1702 137.882 12.7597 138.403 11.4577C138.967 10.0689 139.683 8.94051 140.551 8.07257C141.506 7.11771 142.656 6.35825 144.001 5.79396C145.303 5.27315 146.779 5.01275 148.428 5.01275L157.933 5.07785V0.130243L148.428 0.0651429C145.998 0.0651429 143.763 0.455744 141.723 1.23699C139.726 2.01819 137.99 3.10321 136.515 4.49204C135.083 5.88078 133.932 7.53002 133.065 9.43956C132.283 11.3058 131.893 13.3456 131.893 15.559C131.893 17.7725 132.283 19.8339 133.065 21.7436C133.932 23.74 135.083 25.3892 136.515 26.6912C137.817 27.9932 139.553 29.0999 141.723 30.0113C143.806 30.7925 146.041 31.1831 148.428 31.1831H157.998L157.998 21.8085ZM166.656 0.129825H189.832V5.07744H166.656V0.129825ZM166.656 26.1701H189.767V31.1177H166.656V26.1701ZM166.656 13.0199H187.553V17.9024H166.656V13.0199ZM214.309 5.20784H224.14V0.129992H199.011V5.20784H214.309ZM208.841 10.2859H214.31V31.1179H208.841V10.2859ZM234.491 0.129825H229.478L235.793 31.1179H241.261L237.225 12.0433L234.491 0.129825ZM255.584 0.129825L251.938 13.0849L254.412 22.5243L260.401 0.129825H255.584ZM247.706 9.63424L247.315 8.00676L245.232 0.129659L242.433 9.37409L242.302 9.63449L241.261 13.2801L243.214 22.0037L244.451 17.7071L247.641 31.1179H253.174L248.357 12.0433L247.706 9.63424ZM276.025 26.1701C275.374 26.0399 274.766 25.8445 274.202 25.5841C272.987 25.0199 271.923 24.2387 271.012 23.2405C270.144 22.329 269.45 21.2007 268.929 19.8553C268.451 18.5099 268.213 17.1428 268.213 15.7539V15.6237V15.4284C268.213 13.9962 268.451 12.6074 268.929 11.262C269.493 9.87328 270.187 8.76652 271.012 7.9419C271.88 6.94371 272.922 6.18418 274.137 5.66338C274.875 5.3162 275.504 5.09922 276.025 5.01244V0.129909C274.506 0.346887 273.16 0.715814 271.989 1.23659C270.079 2.06121 268.451 3.16789 267.106 4.55672C265.761 5.94555 264.697 7.5947 263.916 9.50425C263.135 11.4138 262.744 13.4103 262.744 15.4935V15.6237V15.819C262.744 17.9456 263.135 19.942 263.916 21.8083C264.611 23.6745 265.652 25.302 267.041 26.6908C268.43 28.123 270.057 29.2297 271.923 30.0109C273.095 30.5317 274.462 30.9006 276.025 31.1176V26.1701ZM293.732 15.6239L293.732 15.4286C293.732 13.3019 293.341 11.3055 292.56 9.43927C291.779 7.52972 290.716 5.88049 289.37 4.49174C288.068 3.10299 286.463 2.01789 284.553 1.23669C283.468 0.715889 282.144 0.346995 280.582 0.130009V5.07762L281.363 5.33802C281.754 5.46822 282.057 5.57674 282.274 5.66353C283.49 6.22775 284.553 7.00894 285.464 8.00713C286.332 8.91857 287.027 10.0469 287.548 11.3923C288.025 12.7378 288.264 14.1048 288.264 15.4937V15.6239V15.8192C288.264 17.2514 288.025 18.6402 287.548 19.9856C286.983 21.3743 286.289 22.4811 285.464 23.3057C284.596 24.3039 283.555 25.0634 282.339 25.5842C281.775 25.8446 281.189 26.0399 280.582 26.1701V31.1178C281.884 30.9441 283.186 30.5752 284.488 30.011C286.267 29.2732 287.895 28.1665 289.37 26.6909C290.803 25.1719 291.866 23.5227 292.56 21.7433C293.341 19.8338 293.732 17.8373 293.732 15.7541L293.732 15.6239ZM324.719 31.1177L316.321 19.3992C317.45 19.052 318.448 18.6398 319.316 18.1624C320.271 17.5548 321.052 16.8821 321.66 16.1443C322.354 15.3197 322.853 14.43 323.157 13.4752C323.548 12.4336 323.743 11.2617 323.743 9.95972C323.743 8.44073 323.483 7.07365 322.962 5.85839C322.441 4.68654 321.681 3.66669 320.683 2.79866C319.728 1.97404 318.513 1.323 317.037 0.845615C315.518 0.368236 313.913 0.129509 312.22 0.129509H298.418V5.07712H311.764C313.804 5.07712 315.388 5.51114 316.516 6.37912C317.645 7.2471 318.209 8.54907 318.209 10.2851C318.209 11.8909 317.645 13.1495 316.516 14.061C315.388 15.0158 313.826 15.4932 311.829 15.4932H298.418V31.1173H303.822V20.3104H310.657L318.274 31.1173L324.719 31.1177ZM334.094 0.129825H339.432V26.1699H355.707V31.1175H334.093L334.094 0.129825ZM388.909 21.7435C388.084 23.74 386.956 25.3891 385.523 26.6911C384.048 28.0799 382.312 29.165 380.315 29.9462C378.319 30.7274 376.084 31.118 373.61 31.118H366.384V26.1704H373.545C375.194 26.1704 376.691 25.91 378.037 25.3892C379.339 24.8684 380.467 24.1306 381.422 23.1757C382.377 22.2209 383.115 21.0925 383.635 19.7905C384.156 18.4885 384.417 17.0563 384.417 15.4939C384.417 13.9749 384.156 12.5644 383.635 11.2624C383.115 9.91697 382.377 8.81029 381.422 7.94226C380.554 7.03082 379.426 6.29311 378.037 5.72881C376.648 5.20801 375.151 4.94761 373.545 4.94761H366.384V0H373.61C375.91 0 378.124 0.412283 380.25 1.23692C382.247 1.9747 384.004 3.08139 385.523 4.55705C386.999 5.90247 388.127 7.5517 388.909 9.50466C389.733 11.5011 390.146 13.5409 390.146 15.6241C390.146 17.881 389.733 19.9207 388.909 21.7435Z" fill="#511E78"/>
</svg>
