<svg width="30" height="30" viewBox="0 0 30 30" fill="none" xmlns="http://www.w3.org/2000/svg">
<path d="M12.4448 27.9997C13.8435 27.9997 14.9775 26.8682 14.9775 25.4725C14.9775 24.0768 13.8435 22.9453 12.4448 22.9453C11.046 22.9453 9.91211 24.0768 9.91211 25.4725C9.91211 26.8682 11.046 27.9997 12.4448 27.9997Z" stroke="white" stroke-width="2.12056" stroke-linecap="round" stroke-linejoin="round"/>
<path d="M23.4799 27.9997C24.8787 27.9997 26.0126 26.8682 26.0126 25.4725C26.0126 24.0768 24.8787 22.9453 23.4799 22.9453C22.0812 22.9453 20.9473 24.0768 20.9473 25.4725C20.9473 26.8682 22.0812 27.9997 23.4799 27.9997Z" stroke="white" stroke-width="2.12056" stroke-linecap="round" stroke-linejoin="round"/>
<path d="M6.57385 5.42457L9.5666 14.8797C10.0267 16.3327 10.256 17.0592 10.6982 17.597C11.0853 18.0724 11.5901 18.4394 12.1603 18.6667C12.808 18.9238 13.5703 18.9238 15.098 18.9238H20.8378C22.3655 18.9238 23.1278 18.9238 23.774 18.6667C24.3458 18.4394 24.849 18.0724 25.2376 17.597C25.6784 17.0592 25.9077 16.3327 26.3692 14.8797L26.9782 12.9542L27.3355 11.8161L27.8284 10.2561C28.0043 9.69971 28.0463 9.1098 27.9511 8.53417C27.8559 7.95853 27.6262 7.41337 27.2805 6.94284C26.9348 6.47231 26.4829 6.08966 25.9614 5.82588C25.4399 5.5621 24.8634 5.42462 24.2788 5.42457H6.57385ZM6.57385 5.42457L6.55747 5.3696C6.4946 5.15946 6.42508 4.95135 6.34902 4.7456C6.04758 3.98423 5.53641 3.32351 4.87457 2.83976C4.21272 2.35602 3.42722 2.06901 2.60882 2.01189C2.45546 2 2.28721 2 1.94922 2" stroke="white" stroke-width="2.12056" stroke-linecap="round" stroke-linejoin="round"/>
</svg>
