<svg width="29" height="30" viewBox="0 0 29 30" fill="none" xmlns="http://www.w3.org/2000/svg">
<path d="M1.60938 24.75C1.60937 23.0261 2.29568 21.3728 3.51731 20.1538C4.73894 18.9348 6.39582 18.25 8.12346 18.25H21.1516C22.8793 18.25 24.5362 18.9348 25.7578 20.1538C26.9794 21.3728 27.6657 23.0261 27.6657 24.75C27.6657 25.612 27.3226 26.4386 26.7118 27.0481C26.101 27.6576 25.2725 28 24.4087 28H4.86642C4.0026 28 3.17416 27.6576 2.56334 27.0481C1.95253 26.4386 1.60938 25.612 1.60938 24.75Z" stroke="white" stroke-width="2.12056" stroke-linejoin="round"/>
<path d="M14.6375 11.75C17.3357 11.75 19.5231 9.56739 19.5231 6.875C19.5231 4.18261 17.3357 2 14.6375 2C11.9393 2 9.75195 4.18261 9.75195 6.875C9.75195 9.56739 11.9393 11.75 14.6375 11.75Z" stroke="white" stroke-width="2.12056"/>
</svg>
