<svg width="34" height="30" viewBox="0 0 34 30" fill="none" xmlns="http://www.w3.org/2000/svg">
<path d="M29.5008 17.0268L19.5423 26.9708C18.882 27.6298 17.9866 28 17.0531 28C16.1195 28 15.2241 27.6298 14.5639 26.9708L4.60535 17.0285C3.78214 16.2138 3.12821 15.2448 2.68112 14.1771C2.23402 13.1094 2.00256 11.9641 2.00002 10.8069C1.99748 9.64961 2.22392 8.50327 2.66633 7.43363C3.10873 6.36399 3.7584 5.39213 4.57803 4.57383C5.39766 3.75554 6.37111 3.10693 7.44249 2.66524C8.51388 2.22355 9.66209 1.99749 10.8212 2.00002C11.9804 2.00256 13.1276 2.23364 14.197 2.68001C15.2664 3.12637 16.237 3.77923 17.0531 4.6011C18.7106 2.98747 20.9381 2.09077 23.2532 2.10526C25.5683 2.11974 27.7844 3.04423 29.4215 4.67848C31.0587 6.31272 31.985 8.52511 31.9998 10.8364C32.0147 13.1477 31.1168 15.3717 29.5008 17.0268Z" stroke="white" stroke-width="2.12056" stroke-linecap="round" stroke-linejoin="round"/>
</svg>
